<svg width="35px" height="35px" viewBox="0 0 64 64" xmlns="http://www.w3.org/2000/svg" fill="#ff723a"><g id="SVGRepo_bgCarrier" stroke-width="0"></g><g id="SVGRepo_tracerCarrier" stroke-linecap="round" stroke-linejoin="round"></g><g id="SVGRepo_iconCarrier"> <title>south_korea</title> <g id="south_korea"> <rect x="29" y="11" width="7.878" height="4" style="fill:none;stroke:#ff723a;stroke-linecap:round;stroke-linejoin:round;stroke-width:2px"></rect> <rect x="30" y="7" width="6" height="4" style="fill:none;stroke:#ff723a;stroke-linecap:round;stroke-linejoin:round;stroke-width:2px"></rect> <rect x="31" y="4" width="4" height="3" style="fill:none;stroke:#ff723a;stroke-linecap:round;stroke-linejoin:round;stroke-width:2px"></rect> <line x1="33" y1="4" x2="33" y2="2" style="fill:none;stroke:#ff723a;stroke-linecap:round;stroke-linejoin:round;stroke-width:2px"></line> <rect x="12" y="55" width="43" height="3" style="fill:none;stroke:#ff723a;stroke-linecap:round;stroke-linejoin:round;stroke-width:2px"></rect> <rect x="14" y="58" width="38.976" height="4" style="fill:none;stroke:#ff723a;stroke-linecap:round;stroke-linejoin:round;stroke-width:2px"></rect> <polyline points="17 41.659 17 35.09 50 35.09 50 41.527" style="fill:none;stroke:#ff723a;stroke-linecap:round;stroke-linejoin:round;stroke-width:2px"></polyline> <line x1="42" y1="42" x2="42" y2="36" style="fill:none;stroke:#ff723a;stroke-linecap:round;stroke-linejoin:round;stroke-width:2px"></line> <line x1="38" y1="42" x2="38" y2="36" style="fill:none;stroke:#ff723a;stroke-linecap:round;stroke-linejoin:round;stroke-width:2px"></line> <line x1="24" y1="42" x2="24" y2="36" style="fill:none;stroke:#ff723a;stroke-linecap:round;stroke-linejoin:round;stroke-width:2px"></line> <line x1="28" y1="42" x2="28" y2="36" style="fill:none;stroke:#ff723a;stroke-linecap:round;stroke-linejoin:round;stroke-width:2px"></line> <line x1="42" y1="54" x2="42" y2="48" style="fill:none;stroke:#ff723a;stroke-linecap:round;stroke-linejoin:round;stroke-width:2px"></line> <line x1="38" y1="54" x2="38" y2="48" style="fill:none;stroke:#ff723a;stroke-linecap:round;stroke-linejoin:round;stroke-width:2px"></line> <line x1="24" y1="54" x2="24" y2="48" style="fill:none;stroke:#ff723a;stroke-linecap:round;stroke-linejoin:round;stroke-width:2px"></line> <line x1="28" y1="54" x2="28" y2="48" style="fill:none;stroke:#ff723a;stroke-linecap:round;stroke-linejoin:round;stroke-width:2px"></line> <polyline points="50 47.362 50 55 17 55 17 47.428" style="fill:none;stroke:#ff723a;stroke-linecap:round;stroke-linejoin:round;stroke-width:2px"></polyline> <rect x="13" y="42" width="41" height="5" style="fill:none;stroke:#ff723a;stroke-linecap:round;stroke-linejoin:round;stroke-width:2px"></rect> <path d="M6.465,26.209s-.006,3.749,5.36,3.758l42.927.067a6.306,6.306,0,0,0,5.372-3.742S45.818,24.4,36.89,15.006L29.735,15S17.2,26.225,6.465,26.209Z" style="fill:none;stroke:#ff723a;stroke-linecap:round;stroke-linejoin:round;stroke-width:2px"></path> <polyline points="54.764 30 48.537 35 18.064 35 11.837 30" style="fill:none;stroke:#ff723a;stroke-linecap:round;stroke-linejoin:round;stroke-width:2px"></polyline> <path d="M16.151,29.724l1.8-2.221a1.51,1.51,0,0,1,2.218-.135l2.448,2.356" style="fill:none;stroke:#ff723a;stroke-linecap:round;stroke-linejoin:round;stroke-width:2px"></path> <path d="M34.173,15.441s.588,7.5,10.478,11.638" style="fill:none;stroke:#ff723a;stroke-linecap:round;stroke-linejoin:round;stroke-width:2px"></path> <path d="M32.428,15.441s-.628,8.013-11.5,12.042" style="fill:none;stroke:#ff723a;stroke-linecap:round;stroke-linejoin:round;stroke-width:2px"></path> <line x1="45" y1="42" x2="45" y2="50" style="fill:none;stroke:#ff723a;stroke-linecap:round;stroke-linejoin:round;stroke-width:2px"></line> <line x1="21" y1="42" x2="21" y2="50" style="fill:none;stroke:#ff723a;stroke-linecap:round;stroke-linejoin:round;stroke-width:2px"></line> <line x1="13" y1="42" x2="13" y2="50" style="fill:none;stroke:#ff723a;stroke-linecap:round;stroke-linejoin:round;stroke-width:2px"></line> <line x1="54" y1="42" x2="54" y2="50" style="fill:none;stroke:#ff723a;stroke-linecap:round;stroke-linejoin:round;stroke-width:2px"></line> <line x1="19" y1="58" x2="19" y2="62" style="fill:none;stroke:#ff723a;stroke-linecap:round;stroke-linejoin:round;stroke-width:2px"></line> <line x1="23" y1="58" x2="23" y2="62" style="fill:none;stroke:#ff723a;stroke-linecap:round;stroke-linejoin:round;stroke-width:2px"></line> <line x1="34" y1="58" x2="34" y2="62" style="fill:none;stroke:#ff723a;stroke-linecap:round;stroke-linejoin:round;stroke-width:2px"></line> <line x1="44" y1="58" x2="44" y2="62" style="fill:none;stroke:#ff723a;stroke-linecap:round;stroke-linejoin:round;stroke-width:2px"></line> <line x1="47.89" y1="58.512" x2="47.89" y2="62" style="fill:none;stroke:#ff723a;stroke-linecap:round;stroke-linejoin:round;stroke-width:2px"></line> <path d="M42.981,29.64l1.8-2.22A1.509,1.509,0,0,1,47,27.285l2.447,2.355" style="fill:none;stroke:#ff723a;stroke-linecap:round;stroke-linejoin:round;stroke-width:2px"></path> </g> </g></svg>